<?xml version="1.0" encoding="UTF-8"?>
<svg version="1.1" xmlns="http://www.w3.org/2000/svg" width="1024" height="1024">
<path d="M0 0 C337.92 0 675.84 0 1024 0 C1024 337.92 1024 675.84 1024 1024 C686.08 1024 348.16 1024 0 1024 C0 686.08 0 348.16 0 0 Z " fill="#FDFDFD" transform="translate(0,0)"/>
<path d="M0 0 C4.9768448 2.21376437 8.27038404 5.93000084 12.0625 9.75 C12.82111328 10.51207764 13.57972656 11.27415527 14.36132812 12.05932617 C20.35078378 18.16391474 25.74138946 24.53146687 30.81640625 31.40625 C31.95004083 32.93272825 33.11501914 34.43577807 34.28125 35.9375 C52.63042967 59.71390182 66.06332638 86.57104785 78 114 C82.15987634 112.265858 85.37915907 109.34265385 88.8125 106.5 C113.47997249 86.48546405 146.79659683 65.47675068 179 62 C182.50001463 72.99153529 184.87414538 84.06323704 186.75 95.4375 C187.06553833 97.33749756 187.06553833 97.33749756 187.38745117 99.27587891 C189.42821076 111.99452699 190.14122628 124.3313494 190.0625 137.1875 C190.05747088 138.63085781 190.05291049 140.07421733 190.04882812 141.51757812 C190.0379438 145.01175505 190.0207585 148.50586612 190 152 C190.90427734 151.67781494 191.80855469 151.35562988 192.74023438 151.02368164 C208.4475004 145.48872908 224.67800698 141.60996864 241.0625 138.6875 C241.94035156 138.52822021 242.81820312 138.36894043 243.72265625 138.20483398 C257.02344533 135.95958359 270.43493312 135.83496439 283.88476562 135.86962891 C286.42063081 135.87509842 288.95632692 135.86958936 291.4921875 135.86328125 C293.10677122 135.8639403 294.72135484 135.86521786 296.3359375 135.8671875 C297.4716066 135.86415115 297.4716066 135.86415115 298.63021851 135.86105347 C303.8849801 135.8849801 303.8849801 135.8849801 305 137 C305.70566159 144.70791698 304.3784022 152.25534847 303 159.8125 C302.78069824 161.02083496 302.56139648 162.22916992 302.33544922 163.47412109 C295.81455126 197.8606646 282.97714223 229.02724646 267 260 C268.19753906 260.03738281 269.39507813 260.07476563 270.62890625 260.11328125 C281.07574525 260.50707411 290.8075387 261.57166787 301 264 C302.2478125 264.27714844 303.495625 264.55429687 304.78125 264.83984375 C320.01440262 268.31989739 334.54717382 273.62916812 348.6875 280.25 C350.06071411 280.88639404 350.06071411 280.88639404 351.46166992 281.53564453 C352.30318604 281.94153809 353.14470215 282.34743164 354.01171875 282.765625 C354.75897217 283.12430664 355.50622559 283.48298828 356.27612305 283.85253906 C358 285 358 285 359 288 C358.13891602 289.92602539 358.13891602 289.92602539 356.75390625 292.09765625 C356.25044678 292.89405518 355.7469873 293.6904541 355.22827148 294.51098633 C354.67856689 295.35298584 354.1288623 296.19498535 353.5625 297.0625 C352.72924194 298.35740356 352.72924194 298.35740356 351.87915039 299.6784668 C348.51442423 304.84825121 345.03609847 309.82123238 341.05859375 314.54296875 C339.4386021 316.47650717 337.88346816 318.42655432 336.34765625 320.42578125 C331.25439246 327.05256703 326.11801798 333.27308819 320 339 C317.55442603 341.38999274 315.26114243 343.65781336 313.1875 346.375 C310.14428262 350.02686085 306.62915363 352.9429297 303 356 C302.12214844 356.75410156 301.24429688 357.50820313 300.33984375 358.28515625 C281.64385989 374.16290298 261.23531656 387.59833232 239 398 C237.89527344 398.52980469 236.79054688 399.05960938 235.65234375 399.60546875 C228.21303852 403.12173817 220.64736679 406.23043197 212.9831543 409.21582031 C211.53974146 409.78657521 210.10176571 410.37113857 208.66723633 410.96386719 C202.88089325 413.34093507 197.08386814 415.30950895 191.0625 417 C190.16080078 417.25491211 189.25910156 417.50982422 188.33007812 417.77246094 C175.07320478 421.44566169 161.63060643 424.15401703 148 426 C146.86175781 426.185625 145.72351563 426.37125 144.55078125 426.5625 C129.46316953 428.75928068 114.20408517 428.23738859 99 428 C97.81051758 427.98598145 96.62103516 427.97196289 95.39550781 427.95751953 C82.48575607 427.77702862 70.54244738 426.73535664 58.04248047 423.49658203 C54.72351783 422.68965279 51.36497182 422.13979105 48 421.5625 C34.6706968 419.11724398 21.26773481 415.51186177 8.83984375 410.05078125 C2.60565538 407.39614613 -2.29339823 408.07469182 -8.5078125 410.19921875 C-9.70148438 410.69035156 -10.89515625 411.18148438 -12.125 411.6875 C-28.43092115 418.09980935 -45.73577135 422.15225945 -63 425 C-63.89944336 425.15098145 -64.79888672 425.30196289 -65.72558594 425.45751953 C-96.74161931 430.41987075 -129.17072031 429.64793518 -160 424 C-161.06911621 423.81808105 -162.13823242 423.63616211 -163.23974609 423.44873047 C-183.6071418 419.98134635 -203.02122395 414.15538794 -222 406 C-222.81879639 405.65437012 -223.63759277 405.30874023 -224.48120117 404.95263672 C-243.40307068 396.92180864 -261.24315367 386.90864512 -278 375 C-278.97960693 374.30438965 -278.97960693 374.30438965 -279.97900391 373.59472656 C-288.57647991 367.43515653 -296.58928665 360.90676769 -304.23046875 353.59375 C-306.92172469 351.00434479 -306.92172469 351.00434479 -309.67578125 348.8671875 C-311.73010196 347.21682565 -313.32218886 345.64019708 -315 343.625 C-317.21323385 341.01978953 -319.4697465 338.4895462 -321.84765625 336.03515625 C-333.60598432 323.8460667 -343.45083361 310.36234511 -352.5 296.0625 C-352.98742676 295.31129883 -353.47485352 294.56009766 -353.97705078 293.78613281 C-354.40743652 293.08456055 -354.83782227 292.38298828 -355.28125 291.66015625 C-355.66345703 291.04793213 -356.04566406 290.43570801 -356.43945312 289.80493164 C-357 288 -357 288 -356.42456055 285.94433594 C-354.56161007 283.40165598 -352.77652862 282.56728772 -349.92578125 281.23046875 C-348.87688721 280.73732178 -347.82799316 280.2441748 -346.74731445 279.73608398 C-345.0470813 278.96953491 -345.0470813 278.96953491 -343.3125 278.1875 C-342.14871826 277.65777588 -340.98493652 277.12805176 -339.78588867 276.58227539 C-316.75451889 266.35496586 -290.41822629 259.07570086 -265 260 C-265.4846875 259.04222656 -265.969375 258.08445312 -266.46875 257.09765625 C-276.93240936 236.34697275 -286.68718275 215.64545151 -293.3046875 193.31591797 C-293.95797234 191.13998399 -294.6464487 188.97855301 -295.34375 186.81640625 C-300.21589638 171.18302795 -303.6563016 153.40754012 -303 137 C-296.49631322 135.48135718 -289.89303649 135.75648138 -283.25 135.75 C-282.53714844 135.74899292 -281.82429688 135.74798584 -281.08984375 135.74694824 C-267.55009928 135.75981584 -254.38620913 136.92701918 -241 139 C-239.92089355 139.16048828 -238.84178711 139.32097656 -237.72998047 139.48632812 C-234.46316316 139.97527217 -231.19987742 140.48230536 -227.9375 141 C-226.46506836 141.23058105 -226.46506836 141.23058105 -224.96289062 141.46582031 C-220.05544171 142.28941233 -215.59634556 143.36974838 -210.9855957 145.23730469 C-207.28850328 146.65741003 -203.44781222 147.60474369 -199.625 148.625 C-198.03335485 149.05283422 -196.44218362 149.48243667 -194.8515625 149.9140625 C-194.15885254 150.0992041 -193.46614258 150.2843457 -192.75244141 150.47509766 C-191 151 -191 151 -189 152 C-189.00523682 151.39526855 -189.01047363 150.79053711 -189.01586914 150.16748047 C-189.03677358 147.40333106 -189.04970279 144.63919835 -189.0625 141.875 C-189.07087891 140.92367187 -189.07925781 139.97234375 -189.08789062 138.9921875 C-189.10457636 134.18669553 -188.88887764 129.73615718 -188 125 C-187.89951829 122.83406087 -187.81833487 120.66719155 -187.75 118.5 C-186.88814088 101.03398653 -184.91444992 77.82889983 -177 62 C-168.60750453 63.17010754 -160.94833128 66.05398592 -153.12207031 69.16015625 C-151.0631106 69.97502296 -148.99711169 70.76940619 -146.9296875 71.5625 C-123.86310551 80.56509989 -103.03878146 93.20332987 -84 109 C-82.29635145 110.33931407 -80.58813857 111.67284636 -78.875 113 C-78.12992187 113.5775 -77.38484375 114.155 -76.6171875 114.75 C-76.08351563 115.1625 -75.54984375 115.575 -75 116 C-74.89558594 114.99453125 -74.79117187 113.9890625 -74.68359375 112.953125 C-74.10375391 108.94549712 -72.73191846 105.42000382 -71.0625 101.75 C-70.75602539 101.06526611 -70.44955078 100.38053223 -70.13378906 99.67504883 C-66.14323615 90.9169079 -61.63451241 82.43115643 -57 74 C-56.34209473 72.80189697 -56.34209473 72.80189697 -55.67089844 71.57958984 C-49.17220962 59.83963956 -42.02466253 48.75379476 -34 38 C-33.5359375 37.37754395 -33.071875 36.75508789 -32.59375 36.11376953 C-22.78770664 23.07270689 -11.62516567 11.41920801 0 0 Z " fill="#F07D0E" transform="translate(511,253)"/>
<path d="M0 0 C8.71810175 3.50728231 15.55096252 14.64327242 21 22 C21.67023193 22.88606934 21.67023193 22.88606934 22.35400391 23.79003906 C31.55999249 35.98328308 39.47202631 48.7148762 47 62 C47.38494629 62.66531738 47.76989258 63.33063477 48.16650391 64.01611328 C58.42600478 81.76683112 66.15768951 101.37145338 72 121 C72.33572021 122.12027588 72.33572021 122.12027588 72.67822266 123.26318359 C76.55421623 136.33879127 79.61764243 149.40681721 81 163 C81.33 163.66 81.66 164.32 82 165 C82.22010521 166.51143734 82.39098178 168.0302212 82.53515625 169.55078125 C82.66712402 170.93088379 82.66712402 170.93088379 82.80175781 172.33886719 C83.15123809 176.32451303 83.47184609 180.31191046 83.77587891 184.30126953 C83.96207975 186.54338727 84.20389153 188.76401532 84.48046875 190.99609375 C84.88185062 195.8417618 84.93909851 198.71404389 82.01171875 202.72265625 C79.44813434 205.30180111 76.77235411 207.64881473 74 210 C63.26044469 221.12800731 54.31022757 234.00950336 46 247 C45.31164062 248.06863281 44.62328125 249.13726563 43.9140625 250.23828125 C33.93137544 266.08037158 26.25948343 282.64493559 19.2265625 299.98046875 C18.48562765 301.8044899 17.73769754 303.62572152 16.9765625 305.44140625 C9.92622809 322.28387179 6.2170507 340.28953885 2 358 C-0.49976861 355.50023139 -0.69069293 353.81487853 -1.48046875 350.3828125 C-1.7539917 349.22773193 -2.02751465 348.07265137 -2.30932617 346.88256836 C-2.59912354 345.6425708 -2.8889209 344.40257324 -3.1875 343.125 C-5.91995307 331.79988176 -9.15957307 320.87970528 -13.25830078 309.97998047 C-14.24997778 307.33267946 -15.18356456 304.66550997 -16.125 302 C-25.51428481 276.60980899 -38.64685846 252.57750312 -55 231 C-55.43135254 230.42588379 -55.86270508 229.85176758 -56.30712891 229.26025391 C-62.28217875 221.34369461 -68.64693371 213.93990923 -75.46875 206.7421875 C-81.37758547 200.34094908 -81.37758547 200.34094908 -81.3984375 195.09765625 C-81.40786377 193.65567871 -81.40786377 193.65567871 -81.41748047 192.18457031 C-81.40346191 191.15428711 -81.38944336 190.12400391 -81.375 189.0625 C-81.36484863 187.98709961 -81.35469727 186.91169922 -81.34423828 185.80371094 C-80.87311022 161.00557489 -75.59043556 135.229239 -67 112 C-66.32765633 109.93934363 -65.6608139 107.87688264 -65 105.8125 C-62.95623415 99.73730583 -60.62388813 93.84669145 -58 88 C-57.65114746 87.21786133 -57.30229492 86.43572266 -56.94287109 85.62988281 C-44.35947002 57.69566876 -28.23392531 32.00481317 -8 9 C-7.27296875 8.16210938 -6.5459375 7.32421875 -5.796875 6.4609375 C-1.38175676 1.38175676 -1.38175676 1.38175676 0 0 Z " fill="#FDFDFC" transform="translate(511,273)"/>
<path d="M0 0 C4.41710291 -0.5624521 7.74878434 -0.56012937 12.09375 0.6171875 C16.42072767 4.23462667 18.95512241 9.53005441 21.71777344 14.35498047 C23.96653227 18.05210597 26.65133643 21.35098796 29.40625 24.6796875 C29.94354736 25.33445068 30.48084473 25.98921387 31.03442383 26.66381836 C41.4011738 39.13921592 52.67443516 51.1658564 65.09375 61.6171875 C65.64708008 62.08431152 66.20041016 62.55143555 66.77050781 63.03271484 C76.14367533 70.90922294 85.72615083 78.10516938 96.09375 84.6171875 C96.95589111 85.16487793 96.95589111 85.16487793 97.83544922 85.72363281 C137.20662287 110.60255524 181.61042092 125.90516956 228.09375 129.6171875 C227.76375 130.2771875 227.43375 130.9371875 227.09375 131.6171875 C224.68087623 132.20375518 222.34083246 132.66122538 219.89453125 133.0546875 C219.15622574 133.17983734 218.41792023 133.30498718 217.65724182 133.43392944 C215.24188212 133.83908533 212.82444589 134.22934176 210.40625 134.6171875 C209.17566864 134.81794891 209.17566864 134.81794891 207.92022705 135.02276611 C170.83286864 141.05698987 134.88535077 141.23613799 98.09375 132.6171875 C97.01947754 132.36888184 95.94520508 132.12057617 94.83837891 131.86474609 C91.60690716 131.11075202 88.38061037 130.33850438 85.15625 129.5546875 C84.19170898 129.32168945 83.22716797 129.08869141 82.23339844 128.84863281 C76.73391912 127.46174069 71.54638999 125.73461964 66.31958008 123.52929688 C64.14341367 122.63753887 61.96024886 121.88879869 59.71875 121.1796875 C28.52714442 110.90862154 -0.33964208 92.13051701 -24.90625 70.6171875 C-26.19697045 69.55353824 -27.48845242 68.49081117 -28.78125 67.4296875 C-31.85327277 64.79437385 -34.41639575 61.82398 -37.03125 58.7421875 C-39.02218503 56.48579447 -41.12394016 54.40207207 -43.28125 52.3046875 C-47.73291287 47.89055973 -51.73345715 43.228507 -55.59521484 38.29199219 C-56.55394272 37.06724857 -57.51865748 35.8471849 -58.48681641 34.62988281 C-60.18299468 32.49090345 -61.85909783 30.33748444 -63.53125 28.1796875 C-64.07692627 27.49318115 -64.62260254 26.8066748 -65.18481445 26.09936523 C-65.68327881 25.44653564 -66.18174316 24.79370605 -66.6953125 24.12109375 C-67.14600098 23.54174072 -67.59668945 22.9623877 -68.06103516 22.36547852 C-68.90625 20.6171875 -68.90625 20.6171875 -68.69580078 18.49145508 C-67.22682399 15.00433856 -63.62009109 14.34204014 -60.30395508 12.9831543 C-43.54603255 6.37343937 -25.04559563 1.63966381 -7 0.796875 C-3.75840638 0.65957593 -3.75840638 0.65957593 0 0 Z " fill="#FDFCFA" transform="translate(243.90625,526.3828125)"/>
<path d="M0 0 C2.61065568 0.30264658 5.21567023 0.65803346 7.8125 1.0625 C10.37451431 1.15962554 12.93709448 1.2427435 15.5 1.3125 C34.72487292 2.54948914 57.66869257 7.29996171 73.8125 18.0625 C72.22272807 22.96429678 69.39605134 26.63958734 66.3125 30.6875 C65.77858643 31.39390625 65.24467285 32.1003125 64.69458008 32.828125 C60.71077677 38.03493759 56.51311724 42.91919694 52.0234375 47.69921875 C50.14416737 49.70797922 48.38003598 51.75915713 46.625 53.875 C38.16400598 63.5991282 28.078547 72.31279234 17.8125 80.0625 C16.80058594 80.85398437 15.78867187 81.64546875 14.74609375 82.4609375 C-7.121012 99.28590135 -32.17434188 112.86988021 -58.1875 122.0625 C-60.00894531 122.76246094 -60.00894531 122.76246094 -61.8671875 123.4765625 C-73.46034999 127.8653114 -85.3447035 130.71362718 -97.42382812 133.43701172 C-99.70865283 133.95412487 -101.9878465 134.48813535 -104.265625 135.03515625 C-120.91992078 138.88888283 -137.58284636 139.4113769 -154.60864258 139.37817383 C-157.98486688 139.37501416 -161.36021127 139.39856917 -164.73632812 139.42382812 C-178.47919984 139.46391346 -191.6607508 138.49089005 -205.1875 136.0625 C-206.30278076 135.86809326 -207.41806152 135.67368652 -208.56713867 135.47338867 C-211.01405794 135.02205308 -213.44368745 134.5279794 -215.875 134 C-216.66970703 133.83951172 -217.46441406 133.67902344 -218.28320312 133.51367188 C-223.93635856 132.31364144 -223.93635856 132.31364144 -226.1875 130.0625 C-225.41148437 129.98209473 -224.63546875 129.90168945 -223.8359375 129.81884766 C-220.28581312 129.44763089 -216.73667967 129.06763871 -213.1875 128.6875 C-211.96675781 128.56117188 -210.74601563 128.43484375 -209.48828125 128.3046875 C-203.98750014 127.71000846 -198.61675174 127.11756267 -193.28027344 125.63378906 C-190.56120171 124.89153197 -187.81980023 124.2800981 -185.0703125 123.66015625 C-183.96816406 123.40943359 -182.86601563 123.15871094 -181.73046875 122.90039062 C-179.46009491 122.3853401 -177.1892631 121.87230401 -174.91796875 121.36132812 C-166.14375014 119.3597415 -157.51647295 117.24232317 -149.25 113.625 C-145.57281865 112.04707028 -141.91377928 110.59693137 -138.125 109.3125 C-110.74799961 99.41766986 -85.25008586 82.87408966 -63.1875 64.0625 C-62.07998122 63.13995935 -60.97187528 62.21812327 -59.86328125 61.296875 C-47.7854576 51.19070162 -36.95996574 40.43247987 -27.1875 28.0625 C-25.72931492 26.33320831 -24.27097846 24.60404426 -22.8125 22.875 C-20.1006003 19.65812587 -17.78362475 16.45740654 -15.703125 12.8125 C-8.23061019 0.01730938 -8.23061019 0.01730938 0 0 Z " fill="#FDFCFA" transform="translate(775.1875,525.9375)"/>
<path d="M0 0 C29.71673278 0.7184586 57.47296127 3.57730656 85.95410156 13.03540039 C88.95101404 14.04934546 88.95101404 14.04934546 91.92871094 14.56420898 C94.96261794 15.30510424 96.6741829 15.89715093 99 18 C100.9744222 23.36835841 101.46542339 28.7720595 102 34.4375 C102.17405632 35.94777084 102.35240587 37.45755339 102.53515625 38.96679688 C102.8874774 41.91865179 103.21979834 44.87161179 103.53515625 47.82763672 C104.39819299 55.7653396 105.36580244 63.44102619 108 71 C108.52013672 72.89878906 108.52013672 72.89878906 109.05078125 74.8359375 C112.1421548 86.09944349 116.17286568 96.87932445 120.5625 107.6875 C120.84163239 108.37954529 121.12076477 109.07159058 121.40835571 109.78460693 C124.26523229 116.84417615 127.13979956 123.76251085 131.13256836 130.27661133 C132 132 132 132 132 135 C127.2143347 133.5781719 122.73734623 131.95116294 118.3125 129.625 C112.09881963 126.42720456 105.61822496 124.21066619 99 122 C97.75089844 121.57589844 96.50179687 121.15179687 95.21484375 120.71484375 C83.20454723 116.73112545 70.79471526 113.286676 58.11328125 112.625 C57.12666504 112.56852295 56.14004883 112.5120459 55.12353516 112.45385742 C53.21195904 112.36182328 51.29804244 112.30792954 49.38427734 112.2980957 C45.53981368 112.12090377 42.99476424 111.99665388 40.20068359 109.19726562 C38.61916047 106.86533359 37.29477974 104.5013863 36 102 C35.19738494 100.66124763 34.39030344 99.32515975 33.578125 97.9921875 C27.18678991 86.82526631 21.96274375 75.27234729 17.01196289 63.40454102 C16.17191511 61.4084902 15.2938573 59.42848634 14.40625 57.453125 C12.60414446 53.02795472 11.26846415 48.52268853 9.9375 43.9375 C9.42661411 42.19636999 8.91491517 40.45547831 8.40234375 38.71484375 C8.16032227 37.88895752 7.91830078 37.06307129 7.66894531 36.2121582 C7.14964268 34.4948585 6.57579122 32.79401181 5.98046875 31.1015625 C4.45845318 26.28689971 3.44278758 21.36980951 2.375 16.4375 C2.14554688 15.40947266 1.91609375 14.38144531 1.6796875 13.32226562 C1.463125 12.32775391 1.2465625 11.33324219 1.0234375 10.30859375 C0.82669434 9.40939209 0.62995117 8.51019043 0.42724609 7.58374023 C0.00085671 5.00518092 -0.07694691 2.60826528 0 0 Z " fill="#FDFCFA" transform="translate(224,403)"/>
<path d="M0 0 C0.10443295 4.68456359 0.09917074 8.6221323 -1.3125 13.125 C-2.90705875 18.51505774 -4.06669229 23.93266932 -5.15625 29.4453125 C-9.34327975 47.08511377 -16.80775987 64.87405958 -25 81 C-25.63107666 82.24789307 -25.63107666 82.24789307 -26.27490234 83.52099609 C-27.693222 86.31140205 -29.12468417 89.09459274 -30.5625 91.875 C-31.00964355 92.74342529 -31.45678711 93.61185059 -31.91748047 94.5065918 C-33.23983512 97.02785879 -34.60702418 99.51712569 -36 102 C-36.46365967 102.85827393 -36.92731934 103.71654785 -37.4050293 104.60083008 C-41.00528916 110.72374979 -41.00528916 110.72374979 -45.69921875 112.02734375 C-47.01535156 111.99769531 -48.33148437 111.96804688 -49.6875 111.9375 C-51.11721915 111.9443431 -52.54692316 111.95607224 -53.9765625 111.97265625 C-54.66782227 111.97023926 -55.35908203 111.96782227 -56.07128906 111.96533203 C-59.53935238 112.02766937 -62.83794483 112.72498197 -66.22265625 113.42578125 C-68.15853855 113.82602696 -70.1057172 114.17369504 -72.05859375 114.48046875 C-91.08474134 117.69828486 -109.55757634 124.90653607 -127 133 C-128.66154951 133.67931984 -130.32629556 134.35120446 -132 135 C-130.43501592 129.79994708 -128.19218612 125.10844286 -125.8125 120.25 C-119.25105698 106.57767916 -113.95898353 92.86576498 -110.140625 78.18359375 C-109.37367913 75.25765918 -108.47785942 72.41281295 -107.48828125 69.5546875 C-105.94075513 64.99110462 -104.86849912 60.41195183 -103.9375 55.6875 C-103.76758545 54.83518799 -103.5976709 53.98287598 -103.42260742 53.10473633 C-101.92112491 45.22970202 -101.07524792 37.3379676 -100.39453125 29.35546875 C-100.32613037 28.6178833 -100.25772949 27.88029785 -100.18725586 27.12036133 C-100.0098242 25.1112427 -99.87475245 23.0985145 -99.7421875 21.0859375 C-99 18 -99 18 -97.05078125 16.43359375 C-93.71656487 15.22071903 -90.39268028 14.03726769 -87 13 C-86.23429688 12.7642627 -85.46859375 12.52852539 -84.6796875 12.28564453 C-56.77580398 3.88277052 -29.10216667 -0.52123284 0 0 Z " fill="#FDFCFB" transform="translate(800,403)"/>
<path d="M0 0 C7.83374652 2.29139154 14.66350563 5.78314498 21.8125 9.6875 C22.91142578 10.27466797 24.01035156 10.86183594 25.14257812 11.46679688 C41.15209459 20.13665287 57.26701399 30.85116219 70 44 C70.66265869 44.64557861 71.32531738 45.29115723 72.00805664 45.95629883 C78.7117682 53.19359418 79.39601536 60.25196867 79.8125 69.6875 C79.97043192 72.4216356 80.1481471 75.15421582 80.33203125 77.88671875 C80.37533569 78.561548 80.41864014 79.23637726 80.46325684 79.93165588 C80.97752351 87.10212086 82.44815135 93.98313687 84 101 C84.40719993 103.02402781 84.81109153 105.04872534 85.2109375 107.07421875 C87.29690491 117.25667298 89.52454912 126.58663498 94 136 C94.61410715 137.57950442 95.21831278 139.16289466 95.8125 140.75 C103.97923485 161.2326979 115.82181542 179.28032031 130.265625 195.8359375 C132.58626469 198.49936239 134.81575888 201.22289343 137 204 C132.23222448 202.57918825 128.00073332 200.56644268 123.6875 198.125 C122.99962402 197.73642822 122.31174805 197.34785645 121.60302734 196.94750977 C104.49607128 187.06860008 89.26007642 174.58950098 75 161 C74.17314697 160.21616943 74.17314697 160.21616943 73.32958984 159.41650391 C65.60091099 152.04666468 58.72128667 144.33151218 52.33398438 135.77392578 C51.02073919 134.02757887 49.67811383 132.30787698 48.328125 130.58984375 C27.93848694 104.24845593 15.78829336 72.9346452 6.63720703 41.20458984 C6.12169277 39.42102902 5.59227775 37.64148977 5.05859375 35.86328125 C1.89691097 24.52426184 0 11.77998005 0 0 Z " fill="#FDFCF9" transform="translate(339,429)"/>
<path d="M0 0 C-0.28231235 12.90937368 -3.28578185 25.43055975 -6 38 C-6.23759033 39.13574463 -6.23759033 39.13574463 -6.47998047 40.29443359 C-13.55367147 73.76566743 -29.54205356 107.36390195 -51 134 C-51.71542969 134.90621094 -52.43085937 135.81242188 -53.16796875 136.74609375 C-58.80634589 143.78159089 -64.80054587 150.46033192 -71 157 C-71.70962891 157.75265137 -71.70962891 157.75265137 -72.43359375 158.52050781 C-79.49858138 165.96363502 -86.99068912 172.49428853 -95.20117188 178.64550781 C-96.97692183 179.98262246 -98.73120423 181.34440877 -100.484375 182.7109375 C-111.8682813 191.45598259 -124.5484114 199.85151342 -138 205 C-135.23893385 201.71656998 -132.47038108 198.49172858 -129.50390625 195.390625 C-122.29777469 187.82674223 -116.52257502 179.85439689 -111 171 C-110.39671875 170.06027344 -109.7934375 169.12054687 -109.171875 168.15234375 C-105.16269052 161.64210259 -101.94229902 154.81455451 -98.75 147.875 C-98.32525391 146.9564624 -97.90050781 146.0379248 -97.46289062 145.09155273 C-95.12970025 139.9174527 -93.23138711 134.80066317 -91.69067383 129.33911133 C-91.04658714 127.1577771 -90.29537299 125.07313468 -89.46484375 122.95703125 C-84.74243482 110.65787513 -82.70634148 97.21347942 -80.75 84.25 C-80.5746875 83.09749756 -80.399375 81.94499512 -80.21875 80.75756836 C-79.40229313 75.04931016 -78.9130233 69.58807457 -79.03491211 63.82739258 C-79.15239047 54.9811684 -76.26567907 50.3862782 -70.41186523 44.17993164 C-68.64248661 42.41198166 -66.83717869 40.69718862 -65 39 C-64.48937012 38.51950195 -63.97874023 38.03900391 -63.45263672 37.54394531 C-50.21421588 25.28631261 -18.68116235 0 0 0 Z " fill="#FDFCFA" transform="translate(685,429)"/>
<path d="M0 0 C7.79813287 26.21499987 7.16570603 53.93638107 7 81 C6.46197754 81.16290527 5.92395508 81.32581055 5.36962891 81.49365234 C-0.58323631 83.37627 -6.06527673 85.79762403 -11.625 88.625 C-12.49672852 89.06593994 -13.36845703 89.50687988 -14.26660156 89.96118164 C-31.42941655 98.74555972 -47.52145392 109.31209535 -62.48461914 121.47216797 C-65.20563774 123.67106174 -67.77391028 125.61403427 -71 127 C-71 127.66 -71 128.32 -71 129 C-71.66 129 -72.32 129 -73 129 C-73.03440186 128.32348389 -73.06880371 127.64696777 -73.10424805 126.94995117 C-74.45456407 102.02248932 -78.89833246 78.1680406 -85 54 C-85.33357137 52.6667262 -85.66697345 51.33340999 -86 50 C-66.76188342 31.68679288 -44.22462908 17.70765189 -20 7 C-19.2174585 6.64663574 -18.43491699 6.29327148 -17.62866211 5.92919922 C-13.81677331 4.21257142 -10.04266792 2.54553386 -6.0625 1.25 C-4.96615234 0.88648438 -4.96615234 0.88648438 -3.84765625 0.515625 C-2 0 -2 0 0 0 Z " fill="#FDFCFA" transform="translate(680,332)"/>
<path d="M0 0 C6.97263464 1.62809225 13.04844245 3.8107719 19.38671875 7.1484375 C22.1627388 8.60090372 24.9814367 9.92667815 27.83203125 11.2265625 C49.41713791 21.10157888 68.29255945 34.21172271 86 50 C84.7448712 55.82523894 83.34584613 61.59085984 81.84277344 67.35668945 C76.53800802 87.87696943 74.32074598 107.85620836 73 129 C69.17822584 126.54644408 65.64496589 123.94906151 62.15795898 121.04296875 C49.34303846 110.4021803 35.31894351 101.6535399 20.75 93.625 C19.91267334 93.16158203 19.07534668 92.69816406 18.21264648 92.22070312 C10.35943733 87.98885947 2.19697877 84.5010868 -6 81 C-6.56994515 41.26167043 -6.56994515 41.26167043 -4.6875 24.1875 C-4.56979248 23.11338867 -4.45208496 22.03927734 -4.33081055 20.93261719 C-3.4459536 13.79714892 -1.88456717 6.93474471 0 0 Z " fill="#FDFCFA" transform="translate(344,332)"/>
<path d="M0 0 C39.59728228 4.001853 87.40769611 21.40460416 113.25 52.9375 C114.16511008 54.07728471 115.07915617 55.21792441 115.9921875 56.359375 C125.25148729 67.84623765 136.39140557 77.98490914 148.25537109 86.71289062 C150.07630801 88.05629664 151.87640701 89.4247516 153.67578125 90.796875 C166.34564165 100.37640482 179.68771445 108.14157041 194 115 C194 115.33 194 115.66 194 116 C190.99634744 115.68927732 187.99887839 115.35280922 185 115 C184.00613281 114.88914062 183.01226562 114.77828125 181.98828125 114.6640625 C140.41401522 109.44882913 99.9043362 91.14680411 66 67 C64.98164063 66.27554688 63.96328125 65.55109375 62.9140625 64.8046875 C48.34649684 54.13710005 33.26840487 41.8626245 21.66015625 27.97265625 C19.73645533 25.68684692 17.71371266 23.50785737 15.6875 21.3125 C12.11676903 17.35458134 8.76273529 13.27424498 5.5 9.0625 C5.06647217 8.50667236 4.63294434 7.95084473 4.1862793 7.37817383 C2.30701988 4.91934734 0.9868522 2.96055659 0 0 Z " fill="#FDFCF8" transform="translate(275,528)"/>
<path d="M0 0 C-7.42769235 10.16574364 -15.50651432 19.71415969 -24 29 C-24.91088242 30.01497377 -25.821009 31.03062626 -26.73046875 32.046875 C-31.85858359 37.75326851 -37.05011784 43.13898516 -43 48 C-44.15125095 48.96329161 -45.30226976 49.92686067 -46.453125 50.890625 C-61.04327196 63.01976124 -76.22294204 73.5756077 -92.81738281 82.78320312 C-94.75245957 83.86199759 -96.67064662 84.96476044 -98.5859375 86.078125 C-106.64651499 90.61565833 -115.01154714 94.2287447 -123.5625 97.75 C-124.67431641 98.21019531 -125.78613281 98.67039062 -126.93164062 99.14453125 C-133.79774484 101.9135774 -140.6785339 104.17612388 -147.82397461 106.11425781 C-150.92233972 106.9783418 -153.9516157 107.97560569 -157 109 C-165.85728298 111.32739244 -174.78944332 113.24868803 -183.8125 114.8125 C-184.57079102 114.94841553 -185.32908203 115.08433105 -186.11035156 115.22436523 C-189.74191594 115.82593034 -192.4803231 116.04807292 -196 115 C-195.05382812 114.55011719 -194.10765625 114.10023438 -193.1328125 113.63671875 C-176.22693946 105.46958848 -160.69737649 95.67942761 -146 84 C-145.16090088 83.33895264 -144.32180176 82.67790527 -143.45727539 81.99682617 C-136.66782262 76.5601027 -130.43292585 70.73712888 -124.3125 64.5625 C-123.42755859 63.68529297 -122.54261719 62.80808594 -121.63085938 61.90429688 C-117.42139694 57.68238961 -113.47381353 53.43953426 -109.828125 48.71875 C-106.44298128 44.3845563 -102.90724929 41.11373093 -98.4375 37.9375 C-97.74914062 37.43637695 -97.06078125 36.93525391 -96.3515625 36.41894531 C-86.80943879 29.57635295 -76.75820001 23.77948436 -66.3125 18.4375 C-65.30509766 17.91687988 -65.30509766 17.91687988 -64.27734375 17.38574219 C-60.85208061 15.68184854 -58.90725757 15 -55 15 C-55 14.34 -55 13.68 -55 13 C-38.02396286 6.69701591 -18.3447438 -0.56445366 0 0 Z " fill="#FDFCF8" transform="translate(750,528)"/>
<path d="M0 0 C0.88029644 2.92557046 1.04083834 5.12202669 0.6171875 8.140625 C0.50487793 8.95112305 0.39256836 9.76162109 0.27685547 10.59667969 C0.14424316 11.47227539 0.01163086 12.34787109 -0.125 13.25 C-0.26405762 14.17458008 -0.40311523 15.09916016 -0.54638672 16.05175781 C-8.21902872 65.39122317 -28.16501262 113.06688331 -69 144 C-70.73843187 140.52313627 -69.00241996 136.70247655 -68.125 133.0625 C-67.90448975 132.14315674 -67.68397949 131.22381348 -67.45678711 130.27661133 C-64.38020562 117.952892 -60.2106509 105.97397767 -56 94 C-55.70947754 93.17000488 -55.41895508 92.34000977 -55.11962891 91.48486328 C-51.66964282 81.71239804 -47.61173305 72.27640431 -43 63 C-42.36167236 61.70932617 -42.36167236 61.70932617 -41.71044922 60.39257812 C-30.83846337 38.56529619 -18.10103778 16.70067096 0 0 Z " fill="#FCFBF6" transform="translate(593,495)"/>
<path d="M0 0 C36.24646669 28.36680002 55.75670712 84.5595756 67 127 C67.29261719 128.05815918 67.58523438 129.11631836 67.88671875 130.20654297 C68.17160156 131.27146973 68.45648438 132.33639648 68.75 133.43359375 C69.01296875 134.40224365 69.2759375 135.37089355 69.546875 136.36889648 C70.00074307 139.00431468 69.87335606 140.50422277 69 143 C68.27554688 142.33613281 67.55109375 141.67226563 66.8046875 140.98828125 C65.83789062 140.10527344 64.87109375 139.22226562 63.875 138.3125 C63.11340576 137.6153186 63.11340576 137.6153186 62.33642578 136.90405273 C59.90695255 134.69059322 57.46850941 132.58543734 54.875 130.5625 C51.25818587 127.33881784 48.3688913 123.73101922 45.35546875 119.9453125 C43.8479419 118.06027893 42.31111436 116.19808476 40.73828125 114.3671875 C23.07964064 93.71921332 10.50637405 65.52499041 5 39 C4.83902832 38.24541504 4.67805664 37.49083008 4.51220703 36.71337891 C3.95706535 34.10245465 3.41362883 31.489379 2.875 28.875 C2.70395752 28.05136963 2.53291504 27.22773926 2.35668945 26.37915039 C0.59775163 17.57744305 -0.14465016 8.96831008 0 0 Z " fill="#FDFBF7" transform="translate(431,496)"/>
<path d="M0 0 C0.66 0.33 1.32 0.66 2 1 C-3.17703948 6.83444132 -8.40280876 12.56478535 -14 18 C-14.99 17.67 -15.98 17.34 -17 17 C-11.39 11.39 -5.78 5.78 0 0 Z " fill="#E9811F" transform="translate(511,253)"/>
<path d="M0 0 C0.66 0.33 1.32 0.66 2 1 C1.23538452 1.75676025 1.23538452 1.75676025 0.45532227 2.52880859 C-1.84488095 4.80827034 -4.14122877 7.09157761 -6.4375 9.375 C-7.23994141 10.1690625 -8.04238281 10.963125 -8.86914062 11.78125 C-9.63291016 12.54179687 -10.39667969 13.30234375 -11.18359375 14.0859375 C-11.89056396 14.7876709 -12.59753418 15.4894043 -13.32592773 16.21240234 C-15.07219984 17.90693091 -15.07219984 17.90693091 -16 20 C-16.66 19.67 -17.32 19.34 -18 19 C-12.51836274 11.95032938 -6.89512914 5.68888905 0 0 Z " fill="#FAECD2" transform="translate(628,461)"/>
<path d="M0 0 C6.435 2.97 6.435 2.97 13 6 C13 6.33 13 6.66 13 7 C11.72125 6.855625 10.4425 6.71125 9.125 6.5625 C4.08719116 6.00185355 -0.95536879 5.49498469 -6 5 C-6 4.67 -6 4.34 -6 4 C-4.35 3.67 -2.7 3.34 -1 3 C-0.67 2.01 -0.34 1.02 0 0 Z " fill="#F9EBD0" transform="translate(456,637)"/>
<path d="M0 0 C0 3 0 3 -1.28515625 4.62573242 C-2.16494141 5.4819519 -2.16494141 5.4819519 -3.0625 6.35546875 C-3.69414063 6.97744141 -4.32578125 7.59941406 -4.9765625 8.24023438 C-5.64429688 8.88283203 -6.31203125 9.52542969 -7 10.1875 C-8.00160156 11.16879883 -8.00160156 11.16879883 -9.0234375 12.16992188 C-10.67578441 13.78686135 -12.33471601 15.39640491 -14 17 C-14.99 16.67 -15.98 16.34 -17 16 C-16.10796875 15.18015625 -15.2159375 14.3603125 -14.296875 13.515625 C-13.11454214 12.42712808 -11.93225277 11.33858392 -10.75 10.25 C-9.87021484 9.44175781 -9.87021484 9.44175781 -8.97265625 8.6171875 C-5.91843019 5.80318147 -2.90859255 2.96618844 0 0 Z " fill="#FCF1DC" transform="translate(735,569)"/>
<path d="M0 0 C1.32 0.66 2.64 1.32 4 2 C3.42765625 2.24492187 2.8553125 2.48984375 2.265625 2.7421875 C-0.38024402 4.21110099 -2.14853139 5.95348244 -4.25 8.125 C-4.95640625 8.84945313 -5.6628125 9.57390625 -6.390625 10.3203125 C-6.92171875 10.87460937 -7.4528125 11.42890625 -8 12 C-8.66 11.67 -9.32 11.34 -10 11 C-6.7 7.37 -3.4 3.74 0 0 Z " fill="#FBEDD5" transform="translate(511,273)"/>
<path d="M0 0 C2.31 0.33 4.62 0.66 7 1 C7 1.33 7 1.66 7 2 C5.02 2.33 3.04 2.66 1 3 C0.97421875 3.60328125 0.9484375 4.2065625 0.921875 4.828125 C0.45283019 11.4373928 0.45283019 11.4373928 -2.0625 14.5625 C-2.701875 15.036875 -3.34125 15.51125 -4 16 C-3.27275406 10.47293087 -1.66554027 5.30039859 0 0 Z " fill="#E79A4D" transform="translate(334,315)"/>
<path d="M0 0 C3.45900478 0.1095693 6.91689109 0.24026848 10.375 0.375 C11.35984375 0.4059375 12.3446875 0.436875 13.359375 0.46875 C14.77089844 0.52675781 14.77089844 0.52675781 16.2109375 0.5859375 C17.08024902 0.6173584 17.94956055 0.6487793 18.84521484 0.68115234 C21 1 21 1 23 3 C21.35 3.33 19.7 3.66 18 4 C18 3.67 18 3.34 18 3 C12.06 2.34 6.12 1.68 0 1 C0 0.67 0 0.34 0 0 Z " fill="#EBA554" transform="translate(453,654)"/>
<path d="M0 0 C0.66 0.33 1.32 0.66 2 1 C1.06027344 1.92232422 1.06027344 1.92232422 0.1015625 2.86328125 C-0.71570313 3.67152344 -1.53296875 4.47976563 -2.375 5.3125 C-3.18710937 6.11300781 -3.99921875 6.91351563 -4.8359375 7.73828125 C-7.12604842 10.00009937 -7.12604842 10.00009937 -9 13 C-9.33 11.68 -9.66 10.36 -10 9 C-6.7 6.03 -3.4 3.06 0 0 Z " fill="#FAEDD7" transform="translate(604,373)"/>
<path d="M0 0 C2.39763185 2.39763185 2.34280586 3.33273498 2.625 6.625 C2.69976562 7.44226563 2.77453125 8.25953125 2.8515625 9.1015625 C2.92503906 10.04128906 2.92503906 10.04128906 3 11 C1.02 9.68 -0.96 8.36 -3 7 C-2.34 6.67 -1.68 6.34 -1 6 C-0.34227572 2.97065509 -0.34227572 2.97065509 0 0 Z " fill="#F7E4C4" transform="translate(498,628)"/>
<path d="M0 0 C5.28 0.66 10.56 1.32 16 2 C16 2.33 16 2.66 16 3 C11.05 3 6.1 3 1 3 C0.67 2.01 0.34 1.02 0 0 Z " fill="#F7D7A9" transform="translate(275,528)"/>
<path d="M0 0 C-0.33 0.66 -0.66 1.32 -1 2 C-3.06640625 2.4140625 -3.06640625 2.4140625 -5.5625 2.625 C-6.38878906 2.69976563 -7.21507812 2.77453125 -8.06640625 2.8515625 C-9.02353516 2.92503906 -9.02353516 2.92503906 -10 3 C-4.375 -1.3125 -4.375 -1.3125 0 0 Z " fill="#F8DEBC" transform="translate(564,641)"/>
<path d="M0 0 C1.32 0.33 2.64 0.66 4 1 C2.6875 4.4375 2.6875 4.4375 1 8 C0.01 8.33 -0.98 8.66 -2 9 C-0.66666667 6.33333333 0.66666667 3.66666667 2 1 C1.34 0.67 0.68 0.34 0 0 Z " fill="#E88B32" transform="translate(847,543)"/>
<path d="M0 0 C0.33 0.66 0.66 1.32 1 2 C1.66 2 2.32 2 3 2 C3 4.64 3 7.28 3 10 C2.01 9.34 1.02 8.68 0 8 C-0.40843923 5.28796348 -0.13336867 2.7562858 0 0 Z " fill="#F8F0DC" transform="translate(321,425)"/>
<path d="M0 0 C0.33 0 0.66 0 1 0 C1 4.29 1 8.58 1 13 C-0.65 12.67 -2.3 12.34 -4 12 C-3.01 11.34 -2.02 10.68 -1 10 C-0.41810734 7.57478506 -0.41810734 7.57478506 -0.3125 4.875 C-0.21388672 3.50988281 -0.21388672 3.50988281 -0.11328125 2.1171875 C-0.07589844 1.41851562 -0.03851563 0.71984375 0 0 Z " fill="#FBF8E8" transform="translate(321,392)"/>
<path d="M0 0 C0.33 0.66 0.66 1.32 1 2 C0.00390625 3.9453125 0.00390625 3.9453125 -1.4375 6.125 C-1.91058594 6.84945312 -2.38367188 7.57390625 -2.87109375 8.3203125 C-3.24363281 8.87460937 -3.61617187 9.42890625 -4 10 C-4.66 9.67 -5.32 9.34 -6 9 C-4.02 6.03 -2.04 3.06 0 0 Z " fill="#E88E33" transform="translate(562,596)"/>
<path d="M0 0 C0.33 0.66 0.66 1.32 1 2 C0.07421875 3.9453125 0.07421875 3.9453125 -1.3125 6.125 C-1.76238281 6.84945313 -2.21226562 7.57390625 -2.67578125 8.3203125 C-3.11277344 8.87460937 -3.54976563 9.42890625 -4 10 C-4.66 10 -5.32 10 -6 10 C-4.6302836 6.00499382 -2.74277578 3.19990508 0 0 Z " fill="#E88D31" transform="translate(475,294)"/>
</svg>
